<?xml version="1.0" encoding="UTF-8"?><svg id="Layer_1" xmlns="http://www.w3.org/2000/svg" viewBox="0 0 378.86 750"><defs><style>.cls-1{fill:#fff;}</style></defs><path class="cls-1" d="M12.1,399.45h82.21v338.45c0,6.68,5.41,12.1,12.1,12.1h139.39c6.68,0,12.1-5.41,12.1-12.1v-336.86h94.51c6.15,0,11.32-4.61,12.02-10.72l14.35-124.6c.39-3.43-.69-6.86-2.99-9.43-2.3-2.57-5.58-4.05-9.03-4.05h-108.86v-78.11c0-23.55,12.68-35.48,37.68-35.48h71.18c6.68,0,12.1-5.42,12.1-12.1V12.19c0-6.68-5.41-12.1-12.1-12.1h-98.09c-.69-.03-2.23-.09-4.49-.09-17.02,0-76.18,3.34-122.91,46.33-51.78,47.64-44.58,104.69-42.86,114.58v91.34H12.1c-6.68,0-12.1,5.41-12.1,12.1v123.01c0,6.68,5.41,12.1,12.1,12.1Z"/></svg>