<?xml version="1.0" encoding="UTF-8"?><svg id="Laag_1" xmlns="http://www.w3.org/2000/svg" viewBox="0 0 386.72 386.88"><defs><style>.cls-1{fill:#fff;}</style></defs><path class="cls-1" d="M98.11,1.77c59.84-5.3,126.23,3.39,186.75-.35,52.5,3.23,96.54,45.91,100.44,98.56,4.47,60.37-3.3,126.05,0,186.97-4.63,52.37-46.13,93.87-98.5,98.5-60.92-3.3-126.6,4.47-186.97,0-52-3.85-95.07-47.56-98.55-99.45-4.03-60.06,3.14-124.56,0-185.08C5.23,49.36,46.22,6.37,98.11,1.77ZM98.09,44.75c-27.6,4.57-49.39,26.68-53.66,54.34l-.11,187.86c3.99,28.78,26.79,51.43,55.49,55.51h186.98c28.82-4.12,51.39-26.7,55.5-55.5V99.98c-4.08-28.72-26.74-51.51-55.51-55.49l-188.7.26Z"/><path class="cls-1" d="M299.93,193.47c0,58.89-47.74,106.62-106.62,106.62s-106.62-47.74-106.62-106.62,47.74-106.62,106.62-106.62,106.62,47.74,106.62,106.62ZM257.29,193.45c0-35.35-28.65-64-64-64s-64,28.65-64,64,28.65,64,64,64,64-28.65,64-64Z"/><circle class="cls-1" cx="299.98" cy="86.78" r="21.34"/></svg>